# MagicaVoxel @ Ephtracy

# group
o 

# material
mtllib Target.mtl
usemtl palette

# normals
vn -1 0 0
vn 1 0 0
vn 0 0 1
vn 0 0 -1
vn 0 -1 0
vn 0 1 0

# texcoords
vt 0.841797 0.5
vt 0.927734 0.5
vt 0.955078 0.5
vt 0.958984 0.5

# verts
v -0.1 0 0.3
v -0.1 0 -0.3
v -0.1 0.1 0.4
v -0.1 0.1 0.3
v -0.1 0.1 0.2
v -0.1 0.1 -0.2
v -0.1 0.1 -0.3
v -0.1 0.1 -0.4
v -0.1 0.2 0.5
v -0.1 0.2 0.4
v -0.1 0.2 0.3
v -0.1 0.2 0.2
v -0.1 0.2 0.1
v -0.1 0.2 -0.1
v -0.1 0.2 -0.2
v -0.1 0.2 -0.3
v -0.1 0.2 -0.4
v -0.1 0.2 -0.5
v -0.1 0.3 0.4
v -0.1 0.3 0.3
v -0.1 0.3 0.2
v -0.1 0.3 0.1
v -0.1 0.3 -0.1
v -0.1 0.3 -0.2
v -0.1 0.3 -0.3
v -0.1 0.3 -0.4
v -0.1 0.4 0.3
v -0.1 0.4 0.2
v -0.1 0.4 0.1
v -0.1 0.4 -0.1
v -0.1 0.4 -0.2
v -0.1 0.4 -0.3
v -0.1 0.6 0.3
v -0.1 0.6 0.2
v -0.1 0.6 0.1
v -0.1 0.6 -0.1
v -0.1 0.6 -0.2
v -0.1 0.6 -0.3
v -0.1 0.7 0.4
v -0.1 0.7 0.3
v -0.1 0.7 0.2
v -0.1 0.7 0.1
v -0.1 0.7 -0.1
v -0.1 0.7 -0.2
v -0.1 0.7 -0.3
v -0.1 0.7 -0.4
v -0.1 0.8 0.5
v -0.1 0.8 0.4
v -0.1 0.8 0.3
v -0.1 0.8 0.2
v -0.1 0.8 0.1
v -0.1 0.8 -0.1
v -0.1 0.8 -0.2
v -0.1 0.8 -0.3
v -0.1 0.8 -0.4
v -0.1 0.8 -0.5
v -0.1 0.9 0.4
v -0.1 0.9 0.3
v -0.1 0.9 0.2
v -0.1 0.9 -0.2
v -0.1 0.9 -0.3
v -0.1 0.9 -0.4
v -0.1 1 0.3
v -0.1 1 -0.3
v 1.49012e-08 0 0.3
v 1.49012e-08 0 -0.3
v 1.49012e-08 0.1 0.4
v 1.49012e-08 0.1 0.3
v 1.49012e-08 0.1 0.2
v 1.49012e-08 0.1 -0.2
v 1.49012e-08 0.1 -0.3
v 1.49012e-08 0.1 -0.4
v 1.49012e-08 0.2 0.5
v 1.49012e-08 0.2 0.4
v 1.49012e-08 0.2 0.3
v 1.49012e-08 0.2 0.2
v 1.49012e-08 0.2 0.1
v 1.49012e-08 0.2 -0.1
v 1.49012e-08 0.2 -0.2
v 1.49012e-08 0.2 -0.3
v 1.49012e-08 0.2 -0.4
v 1.49012e-08 0.2 -0.5
v 1.49012e-08 0.3 0.4
v 1.49012e-08 0.3 0.3
v 1.49012e-08 0.3 0.2
v 1.49012e-08 0.3 0.1
v 1.49012e-08 0.3 -0.1
v 1.49012e-08 0.3 -0.2
v 1.49012e-08 0.3 -0.3
v 1.49012e-08 0.3 -0.4
v 1.49012e-08 0.4 0.3
v 1.49012e-08 0.4 0.2
v 1.49012e-08 0.4 0.1
v 1.49012e-08 0.4 -0.1
v 1.49012e-08 0.4 -0.2
v 1.49012e-08 0.4 -0.3
v 1.49012e-08 0.6 0.3
v 1.49012e-08 0.6 0.2
v 1.49012e-08 0.6 0.1
v 1.49012e-08 0.6 -0.1
v 1.49012e-08 0.6 -0.2
v 1.49012e-08 0.6 -0.3
v 1.49012e-08 0.7 0.4
v 1.49012e-08 0.7 0.3
v 1.49012e-08 0.7 0.2
v 1.49012e-08 0.7 0.1
v 1.49012e-08 0.7 -0.1
v 1.49012e-08 0.7 -0.2
v 1.49012e-08 0.7 -0.3
v 1.49012e-08 0.7 -0.4
v 1.49012e-08 0.8 0.5
v 1.49012e-08 0.8 0.4
v 1.49012e-08 0.8 0.3
v 1.49012e-08 0.8 0.2
v 1.49012e-08 0.8 0.1
v 1.49012e-08 0.8 -0.1
v 1.49012e-08 0.8 -0.2
v 1.49012e-08 0.8 -0.3
v 1.49012e-08 0.8 -0.4
v 1.49012e-08 0.8 -0.5
v 1.49012e-08 0.9 0.4
v 1.49012e-08 0.9 0.3
v 1.49012e-08 0.9 0.2
v 1.49012e-08 0.9 -0.2
v 1.49012e-08 0.9 -0.3
v 1.49012e-08 0.9 -0.4
v 1.49012e-08 1 0.3
v 1.49012e-08 1 -0.3
v -0.1 0.2 0.5
v -0.1 0.8 0.5
v 1.49012e-08 0.2 0.5
v 1.49012e-08 0.8 0.5
v -0.1 0.1 0.4
v -0.1 0.2 0.4
v -0.1 0.8 0.4
v -0.1 0.9 0.4
v 1.49012e-08 0.1 0.4
v 1.49012e-08 0.2 0.4
v 1.49012e-08 0.8 0.4
v 1.49012e-08 0.9 0.4
v -0.1 0 0.3
v -0.1 0.1 0.3
v -0.1 0.9 0.3
v -0.1 1 0.3
v 1.49012e-08 0 0.3
v 1.49012e-08 0.1 0.3
v 1.49012e-08 0.9 0.3
v 1.49012e-08 1 0.3
v -0.1 0 -0.3
v -0.1 0.1 -0.3
v -0.1 0.9 -0.3
v -0.1 1 -0.3
v 1.49012e-08 0 -0.3
v 1.49012e-08 0.1 -0.3
v 1.49012e-08 0.9 -0.3
v 1.49012e-08 1 -0.3
v -0.1 0.1 -0.4
v -0.1 0.2 -0.4
v -0.1 0.8 -0.4
v -0.1 0.9 -0.4
v 1.49012e-08 0.1 -0.4
v 1.49012e-08 0.2 -0.4
v 1.49012e-08 0.8 -0.4
v 1.49012e-08 0.9 -0.4
v -0.1 0.2 -0.5
v -0.1 0.8 -0.5
v 1.49012e-08 0.2 -0.5
v 1.49012e-08 0.8 -0.5
v -0.1 0 0.3
v 1.49012e-08 0 0.3
v -0.1 0 -0.3
v 1.49012e-08 0 -0.3
v -0.1 0.1 0.4
v 1.49012e-08 0.1 0.4
v -0.1 0.1 0.3
v 1.49012e-08 0.1 0.3
v -0.1 0.1 -0.3
v 1.49012e-08 0.1 -0.3
v -0.1 0.1 -0.4
v 1.49012e-08 0.1 -0.4
v -0.1 0.2 0.5
v 1.49012e-08 0.2 0.5
v -0.1 0.2 0.4
v 1.49012e-08 0.2 0.4
v -0.1 0.2 -0.4
v 1.49012e-08 0.2 -0.4
v -0.1 0.2 -0.5
v 1.49012e-08 0.2 -0.5
v -0.1 0.8 0.5
v 1.49012e-08 0.8 0.5
v -0.1 0.8 0.4
v 1.49012e-08 0.8 0.4
v -0.1 0.8 -0.4
v 1.49012e-08 0.8 -0.4
v -0.1 0.8 -0.5
v 1.49012e-08 0.8 -0.5
v -0.1 0.9 0.4
v 1.49012e-08 0.9 0.4
v -0.1 0.9 0.3
v 1.49012e-08 0.9 0.3
v -0.1 0.9 -0.3
v 1.49012e-08 0.9 -0.3
v -0.1 0.9 -0.4
v 1.49012e-08 0.9 -0.4
v -0.1 1 0.3
v 1.49012e-08 1 0.3
v -0.1 1 -0.3
v 1.49012e-08 1 -0.3

# faces
f 4/4/1 2/4/1 1/4/1
f 5/4/1 2/4/1 4/4/1
f 6/4/1 2/4/1 5/4/1
f 7/4/1 2/4/1 6/4/1
f 10/4/1 4/4/1 3/4/1
f 10/4/1 5/4/1 4/4/1
f 11/4/1 5/4/1 10/4/1
f 12/2/1 6/2/1 5/2/1
f 12/4/1 5/4/1 11/4/1
f 13/2/1 6/2/1 12/2/1
f 14/2/1 6/2/1 13/2/1
f 15/4/1 8/4/1 7/4/1
f 15/2/1 6/2/1 14/2/1
f 15/4/1 7/4/1 6/4/1
f 16/4/1 8/4/1 15/4/1
f 17/4/1 8/4/1 16/4/1
f 19/4/1 11/4/1 10/4/1
f 19/4/1 10/4/1 9/4/1
f 20/2/1 13/2/1 12/2/1
f 20/4/1 11/4/1 19/4/1
f 20/2/1 12/2/1 11/2/1
f 21/2/1 13/2/1 20/2/1
f 22/1/1 14/1/1 13/1/1
f 22/2/1 13/2/1 21/2/1
f 23/2/1 16/2/1 15/2/1
f 23/1/1 14/1/1 22/1/1
f 23/2/1 15/2/1 14/2/1
f 24/2/1 16/2/1 23/2/1
f 25/4/1 18/4/1 17/4/1
f 25/2/1 16/2/1 24/2/1
f 25/4/1 17/4/1 16/4/1
f 26/4/1 18/4/1 25/4/1
f 27/2/1 21/2/1 20/2/1
f 27/2/1 20/2/1 19/2/1
f 28/1/1 24/1/1 23/1/1
f 28/2/1 21/2/1 27/2/1
f 28/1/1 23/1/1 22/1/1
f 28/1/1 22/1/1 21/1/1
f 29/1/1 24/1/1 28/1/1
f 30/1/1 24/1/1 29/1/1
f 31/2/1 25/2/1 24/2/1
f 31/1/1 24/1/1 30/1/1
f 31/2/1 26/2/1 25/2/1
f 32/2/1 26/2/1 31/2/1
f 33/2/1 27/2/1 19/2/1
f 33/1/1 29/1/1 28/1/1
f 33/1/1 28/1/1 27/1/1
f 34/1/1 29/1/1 33/1/1
f 35/3/1 30/3/1 29/3/1
f 35/1/1 29/1/1 34/1/1
f 36/1/1 32/1/1 31/1/1
f 36/3/1 30/3/1 35/3/1
f 36/1/1 31/1/1 30/1/1
f 37/1/1 32/1/1 36/1/1
f 38/2/1 26/2/1 32/2/1
f 38/1/1 32/1/1 37/1/1
f 39/4/1 19/4/1 9/4/1
f 39/2/1 34/2/1 33/2/1
f 39/2/1 33/2/1 19/2/1
f 40/2/1 34/2/1 39/2/1
f 41/1/1 37/1/1 36/1/1
f 41/2/1 34/2/1 40/2/1
f 41/1/1 35/1/1 34/1/1
f 41/1/1 36/1/1 35/1/1
f 42/1/1 37/1/1 41/1/1
f 43/1/1 37/1/1 42/1/1
f 44/2/1 38/2/1 37/2/1
f 44/1/1 37/1/1 43/1/1
f 45/2/1 26/2/1 38/2/1
f 45/2/1 38/2/1 44/2/1
f 46/4/1 18/4/1 26/4/1
f 46/2/1 26/2/1 45/2/1
f 47/4/1 40/4/1 39/4/1
f 47/4/1 39/4/1 9/4/1
f 48/4/1 40/4/1 47/4/1
f 49/2/1 41/2/1 40/2/1
f 49/4/1 40/4/1 48/4/1
f 49/2/1 42/2/1 41/2/1
f 50/2/1 42/2/1 49/2/1
f 51/1/1 43/1/1 42/1/1
f 51/2/1 42/2/1 50/2/1
f 52/2/1 45/2/1 44/2/1
f 52/1/1 43/1/1 51/1/1
f 52/2/1 44/2/1 43/2/1
f 53/2/1 45/2/1 52/2/1
f 54/4/1 46/4/1 45/4/1
f 54/2/1 45/2/1 53/2/1
f 55/4/1 18/4/1 46/4/1
f 55/4/1 46/4/1 54/4/1
f 56/4/1 18/4/1 55/4/1
f 57/4/1 49/4/1 48/4/1
f 57/4/1 50/4/1 49/4/1
f 58/4/1 50/4/1 57/4/1
f 59/2/1 51/2/1 50/2/1
f 59/4/1 50/4/1 58/4/1
f 59/2/1 53/2/1 52/2/1
f 59/2/1 52/2/1 51/2/1
f 60/4/1 54/4/1 53/4/1
f 60/2/1 53/2/1 59/2/1
f 60/4/1 55/4/1 54/4/1
f 61/4/1 55/4/1 60/4/1
f 62/4/1 55/4/1 61/4/1
f 63/4/1 59/4/1 58/4/1
f 63/4/1 61/4/1 60/4/1
f 63/4/1 60/4/1 59/4/1
f 64/4/1 61/4/1 63/4/1
f 65/4/2 66/4/2 68/4/2
f 68/4/2 66/4/2 69/4/2
f 69/4/2 66/4/2 70/4/2
f 70/4/2 66/4/2 71/4/2
f 67/4/2 68/4/2 74/4/2
f 68/4/2 69/4/2 74/4/2
f 74/4/2 69/4/2 75/4/2
f 69/2/2 70/2/2 76/2/2
f 75/4/2 69/4/2 76/4/2
f 76/2/2 70/2/2 77/2/2
f 77/2/2 70/2/2 78/2/2
f 71/4/2 72/4/2 79/4/2
f 78/2/2 70/2/2 79/2/2
f 70/4/2 71/4/2 79/4/2
f 79/4/2 72/4/2 80/4/2
f 80/4/2 72/4/2 81/4/2
f 74/4/2 75/4/2 83/4/2
f 73/4/2 74/4/2 83/4/2
f 76/2/2 77/2/2 84/2/2
f 83/4/2 75/4/2 84/4/2
f 75/2/2 76/2/2 84/2/2
f 84/2/2 77/2/2 85/2/2
f 77/1/2 78/1/2 86/1/2
f 85/2/2 77/2/2 86/2/2
f 79/2/2 80/2/2 87/2/2
f 86/1/2 78/1/2 87/1/2
f 78/2/2 79/2/2 87/2/2
f 87/2/2 80/2/2 88/2/2
f 81/4/2 82/4/2 89/4/2
f 88/2/2 80/2/2 89/2/2
f 80/4/2 81/4/2 89/4/2
f 89/4/2 82/4/2 90/4/2
f 84/2/2 85/2/2 91/2/2
f 83/2/2 84/2/2 91/2/2
f 87/1/2 88/1/2 92/1/2
f 91/2/2 85/2/2 92/2/2
f 86/1/2 87/1/2 92/1/2
f 85/1/2 86/1/2 92/1/2
f 92/1/2 88/1/2 93/1/2
f 93/1/2 88/1/2 94/1/2
f 88/2/2 89/2/2 95/2/2
f 94/1/2 88/1/2 95/1/2
f 89/2/2 90/2/2 95/2/2
f 95/2/2 90/2/2 96/2/2
f 83/2/2 91/2/2 97/2/2
f 92/1/2 93/1/2 97/1/2
f 91/1/2 92/1/2 97/1/2
f 97/1/2 93/1/2 98/1/2
f 93/3/2 94/3/2 99/3/2
f 98/1/2 93/1/2 99/1/2
f 95/1/2 96/1/2 100/1/2
f 99/3/2 94/3/2 100/3/2
f 94/1/2 95/1/2 100/1/2
f 100/1/2 96/1/2 101/1/2
f 96/2/2 90/2/2 102/2/2
f 101/1/2 96/1/2 102/1/2
f 73/4/2 83/4/2 103/4/2
f 97/2/2 98/2/2 103/2/2
f 83/2/2 97/2/2 103/2/2
f 103/2/2 98/2/2 104/2/2
f 100/1/2 101/1/2 105/1/2
f 104/2/2 98/2/2 105/2/2
f 98/1/2 99/1/2 105/1/2
f 99/1/2 100/1/2 105/1/2
f 105/1/2 101/1/2 106/1/2
f 106/1/2 101/1/2 107/1/2
f 101/2/2 102/2/2 108/2/2
f 107/1/2 101/1/2 108/1/2
f 102/2/2 90/2/2 109/2/2
f 108/2/2 102/2/2 109/2/2
f 90/4/2 82/4/2 110/4/2
f 109/2/2 90/2/2 110/2/2
f 103/4/2 104/4/2 111/4/2
f 73/4/2 103/4/2 111/4/2
f 111/4/2 104/4/2 112/4/2
f 104/2/2 105/2/2 113/2/2
f 112/4/2 104/4/2 113/4/2
f 105/2/2 106/2/2 113/2/2
f 113/2/2 106/2/2 114/2/2
f 106/1/2 107/1/2 115/1/2
f 114/2/2 106/2/2 115/2/2
f 108/2/2 109/2/2 116/2/2
f 115/1/2 107/1/2 116/1/2
f 107/2/2 108/2/2 116/2/2
f 116/2/2 109/2/2 117/2/2
f 109/4/2 110/4/2 118/4/2
f 117/2/2 109/2/2 118/2/2
f 110/4/2 82/4/2 119/4/2
f 118/4/2 110/4/2 119/4/2
f 119/4/2 82/4/2 120/4/2
f 112/4/2 113/4/2 121/4/2
f 113/4/2 114/4/2 121/4/2
f 121/4/2 114/4/2 122/4/2
f 114/2/2 115/2/2 123/2/2
f 122/4/2 114/4/2 123/4/2
f 116/2/2 117/2/2 123/2/2
f 115/2/2 116/2/2 123/2/2
f 117/4/2 118/4/2 124/4/2
f 123/2/2 117/2/2 124/2/2
f 118/4/2 119/4/2 124/4/2
f 124/4/2 119/4/2 125/4/2
f 125/4/2 119/4/2 126/4/2
f 122/4/2 123/4/2 127/4/2
f 124/4/2 125/4/2 127/4/2
f 123/4/2 124/4/2 127/4/2
f 127/4/2 125/4/2 128/4/2
f 131/4/3 130/4/3 129/4/3
f 132/4/3 130/4/3 131/4/3
f 137/4/3 134/4/3 133/4/3
f 138/4/3 134/4/3 137/4/3
f 139/4/3 136/4/3 135/4/3
f 140/4/3 136/4/3 139/4/3
f 145/4/3 142/4/3 141/4/3
f 146/4/3 142/4/3 145/4/3
f 147/4/3 144/4/3 143/4/3
f 148/4/3 144/4/3 147/4/3
f 149/4/4 150/4/4 153/4/4
f 153/4/4 150/4/4 154/4/4
f 151/4/4 152/4/4 155/4/4
f 155/4/4 152/4/4 156/4/4
f 157/4/4 158/4/4 161/4/4
f 161/4/4 158/4/4 162/4/4
f 159/4/4 160/4/4 163/4/4
f 163/4/4 160/4/4 164/4/4
f 165/4/4 166/4/4 167/4/4
f 167/4/4 166/4/4 168/4/4
f 171/4/5 170/4/5 169/4/5
f 172/4/5 170/4/5 171/4/5
f 175/4/5 174/4/5 173/4/5
f 176/4/5 174/4/5 175/4/5
f 179/4/5 178/4/5 177/4/5
f 180/4/5 178/4/5 179/4/5
f 183/4/5 182/4/5 181/4/5
f 184/4/5 182/4/5 183/4/5
f 187/4/5 186/4/5 185/4/5
f 188/4/5 186/4/5 187/4/5
f 189/4/6 190/4/6 191/4/6
f 191/4/6 190/4/6 192/4/6
f 193/4/6 194/4/6 195/4/6
f 195/4/6 194/4/6 196/4/6
f 197/4/6 198/4/6 199/4/6
f 199/4/6 198/4/6 200/4/6
f 201/4/6 202/4/6 203/4/6
f 203/4/6 202/4/6 204/4/6
f 205/4/6 206/4/6 207/4/6
f 207/4/6 206/4/6 208/4/6
