# MagicaVoxel @ Ephtracy

# group
o 

# material
mtllib Cubeplayer.mtl
usemtl palette

# normals
vn -1 0 0
vn 1 0 0
vn 0 0 1
vn 0 0 -1
vn 0 -1 0
vn 0 1 0

# texcoords
vt 0.0175781 0.5
vt 0.951172 0.5
vt 0.955078 0.5
vt 0.958984 0.5

# verts
v -0.5 0 0.5
v -0.5 0 -0.5
v -0.5 0.2 0.4
v -0.5 0.2 -0.4
v -0.5 0.3 0.4
v -0.5 0.3 -0.4
v -0.5 0.6 0.3
v -0.5 0.6 0.2
v -0.5 0.6 0.1
v -0.5 0.6 -0.1
v -0.5 0.6 -0.2
v -0.5 0.6 -0.3
v -0.5 0.7 0.2
v -0.5 0.7 0.1
v -0.5 0.7 -0.1
v -0.5 0.7 -0.2
v -0.5 0.8 0.3
v -0.5 0.8 0.1
v -0.5 0.8 -0.1
v -0.5 0.8 -0.3
v -0.5 1 0.5
v -0.5 1 -0.5
v 0.5 0 0.5
v 0.5 0 -0.5
v 0.5 1 0.5
v 0.5 1 -0.5
v -0.5 0 0.5
v -0.5 1 0.5
v 0.5 0 0.5
v 0.5 1 0.5
v -0.5 0 -0.5
v -0.5 1 -0.5
v 0.5 0 -0.5
v 0.5 1 -0.5
v -0.5 0 0.5
v 0.5 0 0.5
v -0.5 0 -0.5
v 0.5 0 -0.5
v -0.5 1 0.5
v 0.5 1 0.5
v -0.5 1 -0.5
v 0.5 1 -0.5

# faces
f 3/4/1 2/4/1 1/4/1
f 4/4/1 2/4/1 3/4/1
f 5/4/1 3/4/1 1/4/1
f 5/2/1 4/2/1 3/2/1
f 6/4/1 2/4/1 4/4/1
f 6/2/1 4/2/1 5/2/1
f 7/4/1 6/4/1 5/4/1
f 8/4/1 6/4/1 7/4/1
f 9/4/1 6/4/1 8/4/1
f 10/4/1 6/4/1 9/4/1
f 11/4/1 6/4/1 10/4/1
f 12/4/1 6/4/1 11/4/1
f 13/2/1 8/2/1 7/2/1
f 13/3/1 9/3/1 8/3/1
f 14/4/1 10/4/1 9/4/1
f 14/3/1 9/3/1 13/3/1
f 15/3/1 11/3/1 10/3/1
f 15/4/1 10/4/1 14/4/1
f 16/2/1 12/2/1 11/2/1
f 16/3/1 11/3/1 15/3/1
f 17/4/1 7/4/1 5/4/1
f 17/2/1 13/2/1 7/2/1
f 17/2/1 14/2/1 13/2/1
f 18/4/1 15/4/1 14/4/1
f 18/2/1 14/2/1 17/2/1
f 19/2/1 16/2/1 15/2/1
f 19/4/1 15/4/1 18/4/1
f 20/2/1 12/2/1 16/2/1
f 20/2/1 16/2/1 19/2/1
f 20/4/1 6/4/1 12/4/1
f 21/4/1 5/4/1 1/4/1
f 21/4/1 19/4/1 18/4/1
f 21/4/1 20/4/1 19/4/1
f 21/4/1 17/4/1 5/4/1
f 21/4/1 18/4/1 17/4/1
f 22/4/1 6/4/1 20/4/1
f 22/4/1 20/4/1 21/4/1
f 22/4/1 2/4/1 6/4/1
f 23/4/2 24/4/2 25/4/2
f 25/4/2 24/4/2 26/4/2
f 29/4/3 28/4/3 27/4/3
f 30/4/3 28/4/3 29/4/3
f 31/4/4 32/4/4 33/4/4
f 33/4/4 32/4/4 34/4/4
f 37/4/5 36/4/5 35/4/5
f 38/4/5 36/4/5 37/4/5
f 39/4/6 40/4/6 41/4/6
f 41/4/6 40/4/6 42/4/6
